<svg xmlns="http://www.w3.org/2000/svg" viewBox="0 0 307.09 286.71"><defs><style>.cls-1{fill:#454a4a;}.cls-2{fill:#fefdfd;}.cls-3{fill:#fdfdfd;}</style></defs><g id="Capa_2" data-name="Capa 2"><g id="Capa_1-2" data-name="Capa 1"><path class="cls-1" d="M181.3,148.43c2.55,7.45,7.26,13.47,11,20q6.77,11.92,13.61,23.82c3.66,6.36,7.36,12.69,11,19,1.47,2.52,2.94,5.05,4.44,7.56,5.74,9.6,11.15,19.39,17,28.91,1.53,2.46,2.73,5.16,4.31,7.6,4.36,6.72-2,15.42-9.24,15.18-5.92-.18-11.86,0-17.79-.07-1.55,0-2,.41-2,2,.11,4.11,0,8.23.07,12.34,0,1.32-.36,1.79-1.72,1.79q-13.77,0-27.52.08c-1.38,0-1.77-.49-1.75-1.8.07-3.79-.11-7.6.08-11.38.12-2.32-.42-3-2.92-3q-56.46.13-112.93.07a42.36,42.36,0,0,1-4.51,0c-1.75-.19-2.07.54-2,2.13.11,3.95,0,7.91,0,11.86,0,1.46-.19,2.13-1.88,2.12q-13.39-.06-26.81.1c-1.6,0-2-.5-2-2,.1-4.11,0-8.22.06-12.33,0-1.5-.44-1.86-1.88-1.84-6,.07-12,.09-18,0a10.15,10.15,0,0,1-8.63-15.31Q11.77,237.57,22.19,220c4.89-8.29,9.73-16.6,14.64-24.87C45,181.36,53,167.53,61.11,153.72c6.12-10.48,12.31-20.93,18.31-31.49a6.22,6.22,0,0,0,.79-3.17q0-33.57,0-67.14c0-1.7-.51-2.1-2.13-2.07-5.22.1-10.44,0-15.66,0a9,9,0,0,1-9.32-9.18c0-4.35.19-8.71-.08-13-.49-7.88,4.26-11.23,11.28-11.22h52q31.9,0,63.82,0a13.22,13.22,0,0,1,7.19,2,7.9,7.9,0,0,1,4.16,7.2c-.05,5,0,10,0,15,0,4.39-4.89,9.31-9.3,9.34-5.62,0-11.23,0-16.85,0-.92,0-1.87-.25-1.87,1.32,0,10.9,0,21.8,0,33.13,3-2,5.72-3.83,8.39-5.71,8.23-5.79,16.59-11.41,24.6-17.48,6.92-5.23,14.38-9.67,21.17-15.1,3.72-3,8.11-5.18,11.88-8.15,2.92-2.29,5.87-4.52,9-6.51,1.22-.78,1.06-1.31.27-2.34a129.23,129.23,0,0,1-8.33-11.15c-2-3.18-1.94-4.91.62-7.55A60.84,60.84,0,0,1,242,1.74c4.79-3.09,7.93-1.81,10.36,1.8,5.75,8.56,11.81,16.92,17.77,25.35,4.5,6.37,9.12,12.66,13.52,19.09,5,7.36,10.58,14.34,15.58,21.7,2.42,3.56,5.2,6.93,7.09,10.85,1.58,3.26.69,8.57-2.09,10.92s-5.47,4.46-8.19,6.7c-3.66,3-7.4,2.26-10-1.74-1.55-2.38-3-4.8-4.5-7.22-.68-1.12-1.25-1.27-2.41-.41-9.13,6.73-18.92,12.52-27.91,19.46-2.34,1.81-5.14,3-7.61,4.64-1.55,1-2.79,2.56-4.34,3.62-6.36,4.35-13,8.3-19.12,13-4.66,3.58-9.51,7-14.35,10.2-6.51,4.36-13.22,9.09-21.74,8.92C183.18,148.58,182.32,148.49,181.3,148.43Z"/><path class="cls-2" d="M191.62,191a120.44,120.44,0,0,1-33.08,3.35c-11-.28-21.69-2.22-32.38-4.83-9.86-2.4-19.57-5.43-29.68-6.87-12.11-1.72-24.16-2.19-36.27-.42a17.93,17.93,0,0,1-2,0c2.06-3.73,4-7.32,6-10.82,6-10.29,12.16-20.47,18-30.82,2.67-4.7,6-9,7.66-14.34A43.58,43.58,0,0,0,92,113.49c0-20.8,0-41.6,0-62.39,0-3.57-.5-3.08,3.2-3.08,18.11,0,36.21,0,54.32-.06,2.12,0,2.6.55,2.59,2.62-.08,21.82,0,43.65-.05,65.48,0,6.47,2.4,12.13,5.64,17.54,2.39,4,4.79,8,7.24,11.92,4.92,7.9,9.23,16.15,14.28,24,3.16,4.89,5.73,10.15,8.6,15.23C189,186.78,190.27,188.77,191.62,191Z"/><path class="cls-3" d="M88.26,217.13c0,8-5.91,14.7-14.25,14.5-7.35-.18-13.25-5.75-13.49-14.6-.2-7.54,6.19-13.65,13.93-13.64A13.57,13.57,0,0,1,88.26,217.13Z"/></g></g></svg>